<svg version="1.1" viewBox="0 0 250 250" xmlns="http://www.w3.org/2000/svg">
  <rect transform="matrix(.8866 .4626 -.8866 .4626 0 0)" x="70.5" y="-70.5" width="134.9" height="134.9" fill="#e8e7e4" fill-rule="evenodd" stroke-width="0"/>
  <path d="m195 47.77-14 7.305 14 7.305-14 7.305 14 7.305l-70 36.52-28-14.61 28-14.61-42-21.91-28 14.61-28-14.61 70-36.52 14 7.305 14-7.305 14 7.305 14-7.305zm-27.21 0.1217-14.05-7.329-14.05 7.329-14.05-7.329-28.09 14.66 42.14 21.99 28.09-14.66-14.05-7.329z" stroke-width="1.001"/>
  <rect transform="matrix(.8866 .4626 0 1 0 0)" x="5.64" y="59.54" width="135.4" height="125.2" fill="#c4c1b8" fill-rule="evenodd" stroke-width="1.067"/>
  <polygon transform="matrix(.9836 .5132 0 1.026 5 62.15)" points="82.43 11 111 11 111 96.71 96.71 96.71 96.71 111 25.29 111 25.29 96.71 11 96.71 11 82.43 39.57 82.43 39.57 96.71 82.43 96.71 82.43 53.86" fill="#ed1978"/>
  <rect transform="matrix(.8866 -.4626 0 1 0 0)" x="141" y="190" width="135.4" height="125.2" fill="#a5a191" fill-rule="evenodd" stroke-width="1.067"/>
  <polygon transform="matrix(.9836 -.5132 0 1.026 125 124.8)" points="11 25.29 25.29 25.29 25.29 18.14 25.29 11 82.43 11 82.43 25.29 96.71 25.29 96.71 39.57 68.14 39.57 68.14 25.29 39.57 25.29 39.57 53.86 96.71 53.86 96.71 68.14 111 68.14 111 96.71 96.71 96.71 96.71 111 25.29 111 25.29 96.71 11 96.71 11 82.43 39.57 82.43 39.57 96.71 82.43 96.71 82.43 68.14 25.29 68.14 25.29 53.86 11 53.86" fill="#ed1978"/>
</svg>
