<svg xmlns="http://www.w3.org/2000/svg" width="88.900002mm" height="9.8777781mm" viewBox="0 0 314.99998 35.000001">
  <g style="line-height:125%" font-size="40" font-family="Sans" letter-spacing="0" word-spacing="0">
    <path d="M10 2.5V0h15v5h5v5h5v25H25V25H10v10H0V10h5V5h5V2.5zm10 5V5h-5v5h-5v10h15V10h-5V7.5zM40 20V10h10v20h15V10h10v25H45v-5h-5V20zm45-7.5V10h25v5H90v5h20v5h5v5h-5v5H80v-5h25v-5H85v-5h-5v-5h5v-2.5zM135 5V0h10v10h10v5h-10v20h-10V15h-10v-5h10V5zm35 7.5V10h15v20h10v5h-30v-5h10V15h-5v-2.5zm5-10V0h10v5h-10V2.5zm25 20V10h30v5h5v20h-10V15h-15v20h-10V22.5z" style="-inkscape-font-specification:'Press Start 2P Medium'" font-weight="500" font-family="Press Start 2P"/>
    <path fill="#ed1978" d="M265 15V0h10v30h-5v5h-25v-5h-5v-5h10v5h15V15zm20-12.5V0h20v5h5v5h-10V5h-10v10h20v5h5v10h-5v5h-25v-5h-5v-5h10v5h15V20h-20v-5h-5V5h5V2.5z"/>
  </g>
</svg>
