<svg xmlns="http://www.w3.org/2000/svg" width="285.75mm" height="16.933332mm" viewBox="0 0 1012.5 60"><g stroke-width="1px" style="line-height:125%" font-size="40px" font-family="Sans" letter-spacing="0px" word-spacing="0px"><path d="M15 3.75V0h22.5v7.5H45V15h7.5v37.5h-15v-15H15v15H0V15h7.5V7.5H15V3.75zm15 7.5V7.5h-7.5V15H15v15h22.5V15H30v-3.75zM60 30V15h15v30h22.5V15h15v37.5h-45V45H60V30zm67.5-11.25V15H165v7.5h-30V30h30v7.5h7.5V45H165v7.5h-45V45h37.5v-7.5h-30V30H120v-7.5h7.5v-3.75zm75-11.25V0h15v15h15v7.5h-15v30h-15v-30h-15V15h15V7.5zM255 18.75V15h22.5v30h15v7.5h-45V45h15V22.5H255v-3.75zm7.5-15V0h15v7.5h-15V3.75zm37.5 30V15h45v7.5h7.5v30h-15v-30H315v30h-15V33.75z" style="-inkscape-font-specification:'Press Start 2P Medium'" font-weight="500" font-size="60px" font-family="Press Start 2P"/><path fill="#ed1978" d="M457.5 22.5V0h15v45H465v7.5h-37.5V45H420v-7.5h15V45h22.5V22.5zm30-3.75V15H525v7.5h7.5v30h-45V45H480v-7.5h7.5V30h30v-7.5h-30v-3.75zm30 22.5V37.5H495V45h22.5v-3.75zm30-15V15h15v22.5h15V15h15v22.5H585V45h-7.5v7.5h-15V45H555v-7.5h-7.5V26.25zm60-7.5V15H645v7.5h7.5v30h-45V45H600v-7.5h7.5V30h30v-7.5h-30v-3.75zm30 22.5V37.5H615V45h22.5v-3.75zm30-37.5V0h30v7.5h7.5V15h-15V7.5h-15v15h30V30h7.5v15H705v7.5h-37.5V45H660v-7.5h15V45h22.5V30h-30v-7.5H660v-15h7.5V3.75zm60 15V15h45v7.5H735V45h37.5v7.5h-45V45H720V22.5h7.5v-3.75zm60 15V15h15v7.5h7.5V15h22.5v7.5H810V30h-7.5v22.5h-15V33.75zm67.5-15V15h22.5v30h15v7.5h-45V45h15V22.5H855v-3.75zm7.5-15V0h15v7.5h-15V3.75zM900 37.5V15h45v7.5h7.5v15H945V45h-30v15h-15V37.5zm37.5-7.5v-7.5H915v15h22.5V30zm45-22.5V0h15v15h15v7.5h-15v30h-15v-30h-15V15h15V7.5z"/></g></svg>