<svg xmlns="http://www.w3.org/2000/svg" width="179.21111mm" height="20.283585mm" viewBox="0 0 634.99993 71.870969">
  <g style="line-height:125%" font-size="40" font-family="Sans" letter-spacing="0" word-spacing="0">
    <path fill="#ed1978" d="M345.24917988 8.65099404c-3.2558052 1.44426852-6.75541524 2.41994712-10.42759632 2.85889284 3.74829108-2.24694264 6.62753496-5.80495872 7.98286572-10.044843-3.50845944 2.0810022-7.3939188 3.5916438-11.52981876 4.40581956-3.311559-3.52881564-8.03021388-5.733276-13.25241768-5.733276-10.02670044 0-18.15647136 8.1288834-18.15647136 18.155589 0 1.42302996.16062048 2.80889244.4703598 4.137675-15.08961504-.75709068-28.4676942-7.98552312-37.42269876-18.97020336-1.56285564 2.68145592-2.45844588 5.80008768-2.45844588 9.1275756 0 6.29920932 3.20536104 11.85637452 8.07711312 15.11217456-2.97614868-.0942474-5.77574796-.9110754-8.22357456-2.27082828-.002064.07566108-.002064.15176592-.002064.22831968 0 8.79659772 6.25850724 16.13431896 14.5643838 17.80337256-1.52347452.41504976-3.12748116.63673368-4.78326324.63673368-1.1699268 0-2.30710824-.11415984-3.41597676-.32566824 2.31065316 7.21294212 9.01562424 12.46213788 16.96087872 12.60815556-6.21381132 4.86998736-14.04224856 7.7726886-22.5490194 7.7726886-1.46551224 0-2.91066312-.08628552-4.33104084-.25399068 8.03507976 5.15185236 17.57858748 8.1576504 27.83184288 8.1576504 33.39564384 0 51.65831316-27.66546384 51.65831316-51.65875692 0-.78717864-.0176988-1.56993516-.05265264-2.34914676 3.54695304-2.5593342 6.62487756-5.75673336 9.05898888-9.3979338z"/>
    <path d="M-.00002 36.05479v-17.5h30v5h5v15h-5v5h-20v10h-10v-17.5zm25-5v-7.5h-15v15h15v-7.5zm25-10v-2.5h15v30h10v5h-30v-5h10v-25h-5v-2.5zm35 10v-2.5h25v5h5v10h-25v5h20v5h-25v-5h-5v-15h5v-2.5zm20 5v-2.5h-15v5h15v-2.5zm20-5v-2.5h25v5h5v20h-30v-5h-5v-5h5v-5h20v-5h-20v-2.5zm20 15v-2.5h-15v5h15v-2.5zm20-15v-2.5h25v5h-20v5h20v5h5v5h-5v5h-30v-5h25v-5h-20v-5h-5v-5h5v-2.5zm40 0v-2.5h25v5h5v10h-25v5h20v5h-25v-5h-5v-15h5v-2.5zm20 5v-2.5h-15v5h15v-2.5zm135 0v-17.5h30v5h5v15h-10v5h5v5h5v5h-15v-5h-5v-5h-5v10h-10v-17.5zm25-7.5v-5h-15v15h10v-5h5v-5zm20 2.5v-2.5h25v5h5v10h-25v5h20v5h-25v-5h-5v-15h5v-2.5zm20 5v-2.5h-15v5h15v-2.5zm30-12.5v-5h10v10h10v5h-10v20h-10v-20h-10v-5h10v-5zm25 15v-10h5v20h5v-20h10v20h5v-20h10v25h-30v-5h-5v-10zm45-7.5v-2.5h25v5h5v10h-25v5h20v5h-25v-5h-5v-15h5v-2.5zm20 5v-2.5h-15v5h15v-2.5zm20-5v-2.5h25v5h5v10h-25v5h20v5h-25v-5h-5v-15h5v-2.5zm20 5v-2.5h-15v5h15v-2.5zm30-12.5v-5h10v10h10v5h-10v20h-10v-20h-10v-5h10v-5z" style="line-height:125%;-inkscape-font-specification:'Press Start 2P Medium'" font-weight="500" font-family="Press Start 2P"/>
  </g>
</svg>
