<svg xmlns="http://www.w3.org/2000/svg" width="110.06667mm" height="9.8777781mm" viewBox="0 0 389.99997 35.000001">
  <g style="line-height:125%" font-size="40" font-family="Sans" letter-spacing="0" word-spacing="0">
    <path d="M-.00002 2.5V0h30v5h-10v30h-10V5h-10V2.5zm35 15V0h10v10h20v5h5v20h-10V15h-15v20h-10V17.5zm45-5V10h25v5h5v10h-25v5h20v5h-25v-5h-5V15h5v-2.5zm20 5V15h-15v5h15v-2.5z" style="-inkscape-font-specification:'Press Start 2P Medium'" font-weight="500" font-family="Press Start 2P"/>
    <path fill="#ed1978" d="M164.99998 2.5V0h15v30h10v5h-30v-5h10V5h-5V2.5zm35 10V10h25v5h5v20h-30v-5h-5v-5h5v-5h20v-5h-20v-2.5zm20 15V25h-15v5h15v-2.5zm30-22.5V0h10v10h10v5h-10v20h-10V15h-10v-5h10V5zm30 7.5V10h25v5h5v10h-25v5h20v5h-25v-5h-5V15h5v-2.5zm20 5V15h-15v5h15v-2.5zm20-5V10h25v5h-20v5h20v5h5v5h-5v5h-30v-5h25v-5h-20v-5h-5v-5h5v-2.5zm50-7.5V0h10v10h10v5h-10v20h-10V15h-10v-5h10V5z"/>
  </g>
</svg>
