<svg xmlns="http://www.w3.org/2000/svg" width="145.34445mm" height="9.8777781mm" viewBox="0 0 514.99999 35.000001">
  <g style="line-height:125%" font-size="40" font-family="Sans" letter-spacing="0" word-spacing="0">
    <path d="M0 17.5V0h10v15h5v-5h5v5h5V0h10v35H25v-5h-5v-5h-5v5h-5v5H0V17.5zm40 0V0h10v10h20v5h5v20H65V15H50v20H40V17.5zm45-5V10h25v5h5v20H85v-5h-5v-5h5v-5h20v-5H85v-2.5zm20 15V25H90v5h15v-2.5zM135 5V0h10v10h10v5h-10v20h-10V15h-10v-5h10V5z" style="-inkscape-font-specification:'Press Start 2P Medium'" font-weight="500" font-family="Press Start 2P"/>
    <path fill="#ed1978" d="M210 12.5V10h15v20h10v5h-30v-5h10V15h-5v-2.5zm5-10V0h10v5h-10V2.5zm30 10V10h25v5h-20v5h20v5h5v5h-5v5h-30v-5h25v-5h-20v-5h-5v-5h5v-2.5zM335 5V0h10v10h10v5h-10v20h-10V15h-10v-5h10V5zm25 12.5V0h10v10h20v5h5v20h-10V15h-15v20h-10V17.5zm50-5V10h15v20h10v5h-30v-5h10V15h-5v-2.5zm5-10V0h10v5h-10V2.5zm30 10V10h25v5h-20v5h20v5h5v5h-5v5h-30v-5h25v-5h-20v-5h-5v-5h5v-2.5zm45 20V30h15v5h-15v-2.5zm-5-30V0h25v5h5v10h-5v5h-5v5h-15v-5h10v-5h5v-5h-15v5h-10V5h5V2.5z"/>
  </g>
</svg>
